{"title":"Carlitos Way 1993 PartsGuy DvdRip x264 LKRG","uid":5811319,"size":1093352095,"categoryP":"video","categoryS":"movies","magnet":"?xt=urn:btih:998c6c5abaf95390c7a77b6961a35d4d0f2d2471&amp;dn=Carlitos+Way+1993+PartsGuy+DvdRip+x264+LKRG&amp;tr=udp%3A%2F%2Ftracker.openbittorrent.com%3A80&amp;tr=udp%3A%2F%2Fopen.demonii.com%3A1337&amp;tr=udp%3A%2F%2Ftracker.coppersurfer.tk%3A6969&amp;tr=udp%3A%2F%2Fexodus.desync.com%3A6969","seeders":0,"leechers":0,"uploader":"neon","files":-1,"time":1283642754,"description":"Sprung from prison on a technicality, Carlito Brigante (Al Pacino) vows to use his unexpected second chance to his best advantage. But every time he tries to get out of the rackets, the bad guys pull him back in. Director Brian De Palma stamps his signature electric visual style onto this searing drama about the challenges of trying to go straight in a crooked world. Sean Penn, Viggo Mortensen and John Leguizamo co-star.\n\n\nGeneral\nComplete name : C:\\\\Movies\\\\Carlitos Way 1993 PartsGuy DvdRip x264 LKRG.m4v\nFormat : MPEG-4\nFormat profile : Base Media / Version 2\nCodec ID : mp42\nFile size : 1.02 GiB\nDuration : 2h 24mn\nOverall bit rate : 1 011 Kbps\n\nVideo\nID : 1\nFormat : AVC\nFormat/Info : Advanced Video Codec\nFormat profile : &lt;a class=&quot;__cf_email__&quot; href=&quot;/cdn-cgi/l/email-protection&quot; data-cfemail=&quot;83cee2eaedc3cfb0adb3&quot;&gt;[email&amp;#160;protected]&lt;/a&gt;&lt;script data-cfhash='f9e31' type=&quot;text/javascript&quot;&gt;\n/* &lt;![CDATA[ */!function(){try{var t=&quot;currentScript&quot;in document?document.currentScript:function(){for(var t=document.getElementsByTagName(&quot;script&quot;),e=t.length;e--;)if(t[e].getAttribute(&quot;data-cfhash&quot;))return t[e]}();if(t&amp;&amp;t.previousSibling){var e,r,n,i,c=t.previousSibling,a=c.getAttribute(&quot;data-cfemail&quot;);if(a){for(e=&quot;&quot;,r=parseInt(a.substr(0,2),16),n=2;a.length-n;n+=2)i=parseInt(a.substr(n,2),16)^r,e+=String.fromCharCode(i);e=document.createTextNode(e),c.parentNode.replaceChild(e,c)}t.parentNode.removeChild(t);}}catch(u){}}()/* ]]&gt; */&lt;/script&gt;\nFormat settings, CABAC : Yes\nFormat settings, ReFrames : 2 frames\nCodec ID : avc1\nCodec ID/Info : Advanced Video Coding\nDuration : 2h 24mn\nBit rate mode : Variable\nBit rate : 846 Kbps\nWidth : 720 pixels\nHeight : 362 pixels\nDisplay aspect ratio : 2.35:1\nFrame rate mode : Variable\nFrame rate : 23.976 fps\nMinimum frame rate : 14.985 fps\nMaximum frame rate : 29.970 fps\nColor space : YUV\nChroma subsampling : 4:2:0\nBit depth : 8 bits\nScan type : Progressive\nBits/(Pixel*Frame) : 0.135\nStream size : 872 MiB (84%)\nWriting library : x264 core 79\n\nAudio\nID : 2\nFormat : AAC\nFormat/Info : Advanced Audio Codec\nFormat version : Version 4\nFormat profile : LC\nFormat settings, SBR : No\nCodec ID : 40\nDuration : 2h 24mn\nBit rate mode : Variable\nBit rate : 160 Kbps\nMaximum bit rate : 210 Kbps\nChannel(s) : 2 channels\nChannel positions : Front: L R\nSampling rate : 48.0 KHz\nStream size : 165 MiB (16%)\nLanguage : English","torrent":{"xt":"urn:btih:998c6c5abaf95390c7a77b6961a35d4d0f2d2471","amp;dn":"Carlitos+Way+1993+PartsGuy+DvdRip+x264+LKRG","amp;tr":["udp%3A%2F%2Ftracker.openbittorrent.com%3A80","udp%3A%2F%2Fopen.demonii.com%3A1337","udp%3A%2F%2Ftracker.coppersurfer.tk%3A6969","udp%3A%2F%2Fexodus.desync.com%3A6969"],"infoHash":"998c6c5abaf95390c7a77b6961a35d4d0f2d2471","infoHashBuffer":{"type":"Buffer","data":[153,140,108,90,186,249,83,144,199,167,123,105,97,163,93,77,15,45,36,113]},"announce":[],"urlList":[]}}